<?xml version="1.0" encoding="UTF-8"?><svg xmlns="http://www.w3.org/2000/svg" width="56" height="56" viewBox="0 0 56 56"><defs><linearGradient id="a" x1="43.18%" x2="68.06%" y1="19.75%" y2="80.25%"><stop offset="0%" stop-color="#FF0073"/><stop offset="100%" stop-color="#FF0002"/></linearGradient></defs><path fill="url(#a)" fill-rule="evenodd" d="M30.44 32.82c-3.15 1.58-7.46-.75-15.94 2.05 3.63-2.17 4.34-4.16 6.64-5.66s4.01-.97 6.33-2.13c2.32-1.17 2.9-2.85 5.48-3.8 2.58-.94 4.63-.34 8.55-1.96-7.28 5.11-7.9 9.91-11.06 11.5zm-6.83-13.38C12.65 16.56 16.52 31.67 10 37.34c6.57 1.38 7.93 4.98 13.21 5.58 5.28.6 7.72-2.26 10.44-3.65 2.71-1.4 6.44-1.7 9.06-6.36 2.62-4.65.53-7.88 3.29-14.03-8.39 1.97-18.25-10.06-22.39.56z"/></svg>
